<?xml version="1.0" encoding="UTF-8"?>
<svg version="1.1" xmlns="http://www.w3.org/2000/svg" width="32" height="32">
<path d="M0 0 C4.96215713 2.30385867 7.40033343 5.23758562 10 10 C10.45930489 12.98198095 10.38254615 15.86722187 10.25 18.875 C10.23195312 19.65875 10.21390625 20.4425 10.1953125 21.25 C10.14855148 23.16720189 10.07682003 25.08376715 10 27 C9.278125 27.268125 8.55625 27.53625 7.8125 27.8125 C4.97777044 28.91053412 4.97777044 28.91053412 2.55859375 30.59765625 C-2.01182301 33.1026633 -6.93522962 32.64598157 -12 32 C-14.42951062 30.93197751 -15.9212726 29.71495011 -18 28 C-20.09017655 27.35719099 -20.09017655 27.35719099 -22 27 C-22.10861833 24.29057607 -22.18758577 21.585561 -22.25 18.875 C-22.28351562 18.11445313 -22.31703125 17.35390625 -22.3515625 16.5703125 C-22.44419707 11.19750769 -21.53266959 8.28046096 -18 4 C-12.72867143 -1.00776214 -6.89190982 -0.92775709 0 0 Z " fill="#EEEEEE" transform="translate(22,0)"/>
<path d="M0 0 C4.9156521 2.28226705 7.39140765 5.28446767 10 10 C10 10.99 10 11.98 10 13 C8.35 13.33 6.7 13.66 5 14 C5.94933899 17.35433109 6.89748835 20.69246505 8 24 C5.00667261 23.0022242 4.05233685 22.2477975 2 20 C1.67 20.99 1.34 21.98 1 23 C0.34 23 -0.32 23 -1 23 C-1.34548714 16.66606918 -0.29342747 11.89738492 2 6 C1.01 6.33 0.02 6.66 -1 7 C-1.2475 7.969375 -1.495 8.93875 -1.75 9.9375 C-2.1625 10.948125 -2.575 11.95875 -3 13 C-4.670625 13.4640625 -4.670625 13.4640625 -6.375 13.9375 C-9.95848662 14.57656304 -9.95848662 14.57656304 -11.13671875 16.6328125 C-11.44222656 17.26960938 -11.74773438 17.90640625 -12.0625 18.5625 C-14 22 -14 22 -17.25 22.9375 C-18.1575 22.958125 -19.065 22.97875 -20 23 C-20.33 22.01 -20.66 21.02 -21 20 C-19.02 19.01 -17.04 18.02 -15 17 C-15 16.01 -15 15.02 -15 14 C-17.31 14 -19.62 14 -22 14 C-21.61104749 8.55466487 -19.7851047 5.87313039 -16 2 C-11.13721987 -1.10120902 -5.55106855 -0.59528885 0 0 Z " fill="#282828" transform="translate(22,0)"/>
<path d="M0 0 C0.99 0 1.98 0 3 0 C3.25083612 4.51505017 3.25083612 4.51505017 2.0625 6.8125 C0.45971444 10.11235262 0.36399767 13.36002331 0 17 C0.99 16.01 1.98 15.02 3 14 C5.99332739 14.9977758 6.94766315 15.7522025 9 18 C6.64551835 15.44931155 6.01672076 14.28982642 5.8125 10.75 C5.874375 9.8425 5.93625 8.935 6 8 C7.65 7.67 9.3 7.34 11 7 C11 11.62 11 16.24 11 21 C-2.625 20.25 -2.625 20.25 -6 18 C-5.01 16.515 -5.01 16.515 -4 15 C-3.60986284 13.0103005 -3.26797351 11.00980131 -3 9 C-3.66 9 -4.32 9 -5 9 C-5 8.34 -5 7.68 -5 7 C-4.01 7 -3.02 7 -2 7 C-1.34 4.69 -0.68 2.38 0 0 Z " fill="#F2F2F2" transform="translate(21,6)"/>
<path d="M0 0 C0.66 0.33 1.32 0.66 2 1 C5.17315686 1.05883025 8.32966708 1.02096183 11.50195312 0.9609375 C14.62802222 0.92419624 17.0080613 1.0026871 20 2 C19.06543653 4.33640867 18.42895674 5.72186367 16.2890625 7.109375 C11.35252659 9.03007498 4.82789405 9.10611354 -0.1171875 7.171875 C-1.75 6.125 -1.75 6.125 -4 4 C-4 3.34 -4 2.68 -4 2 C-2.125 0.9375 -2.125 0.9375 0 0 Z " fill="#272727" transform="translate(8,24)"/>
<path d="M0 0 C0.33 1.32 0.66 2.64 1 4 C-2.625 7 -2.625 7 -6 7 C-4.74458443 9.51083114 -3.49936512 9.87125446 -1 11 C-1.99 12.485 -1.99 12.485 -3 14 C-4.32 14 -5.64 14 -7 14 C-7 9.71 -7 5.42 -7 1 C-4.53721199 -0.231394 -2.7204945 -0.07159196 0 0 Z " fill="#F6F6F6" transform="translate(7,13)"/>
<path d="M0 0 C0 3.3 0 6.6 0 10 C-0.99 10.495 -0.99 10.495 -2 11 C-4.35448165 8.44931155 -4.98327924 7.28982642 -5.1875 3.75 C-5.125625 2.8425 -5.06375 1.935 -5 1 C-3 0 -3 0 0 0 Z " fill="#E0E0E0" transform="translate(32,13)"/>
<path d="M0 0 C3 1 3 1 4 3 C5.32 3 6.64 3 8 3 C8 4.32 8 5.64 8 7 C5.69 6.67 3.38 6.34 1 6 C1 5.34 1 4.68 1 4 C0.34 4 -0.32 4 -1 4 C-0.67 2.68 -0.34 1.36 0 0 Z " fill="#F9F9F9" transform="translate(24,20)"/>
<path d="M0 0 C1.65 0 3.3 0 5 0 C5.33 1.32 5.66 2.64 6 4 C3.625 5.5625 3.625 5.5625 1 7 C0.34 6.67 -0.32 6.34 -1 6 C-0.67 4.02 -0.34 2.04 0 0 Z " fill="#CCCCCC" transform="translate(2,13)"/>
<path d="M0 0 C0.125 5.75 0.125 5.75 -1 8 C-2.32 8 -3.64 8 -5 8 C-5.36625971 3.48279689 -5.36625971 3.48279689 -3.625 1.1875 C-2 0 -2 0 0 0 Z " fill="#353535" transform="translate(18,15)"/>
<path d="M0 0 C-0.33 1.65 -0.66 3.3 -1 5 C-2.98 5.33 -4.96 5.66 -7 6 C-7.33 5.01 -7.66 4.02 -8 3 C-2.25 0 -2.25 0 0 0 Z " fill="#323232" transform="translate(9,17)"/>
</svg>
