<?xml version="1.0" encoding="UTF-8"?>
<svg version="1.1" xmlns="http://www.w3.org/2000/svg" width="16" height="16">
<path d="M0 0 C2.5 1.375 2.5 1.375 4 4 C4.31607666 7.36094848 4.2311397 10.6356333 4 14 C1.21787922 15.56494294 -0.80561326 16.27495615 -4 16.25 C-4.66 16.25515625 -5.32 16.2603125 -6 16.265625 C-8.32576355 15.95673453 -9.96668138 15.14374172 -12 14 C-12.6132879 5.07325383 -12.6132879 5.07325383 -10.5 1.375 C-6.93572591 -0.58535075 -3.9741072 -0.76550426 0 0 Z " fill="#CCCCCC" transform="translate(12,0)"/>
<path d="M0 0 C2.5 1.6875 2.5 1.6875 4 4 C4.55156953 7.76905843 4.16551116 8.75173326 2 12 C1.01 11.67 0.02 11.34 -1 11 C-0.67 8.36 -0.34 5.72 0 3 C-0.66 3 -1.32 3 -2 3 C-2.33 3.99 -2.66 4.98 -3 6 C-7.31818182 10.77272727 -7.31818182 10.77272727 -11 12 C-11 11.34 -11 10.68 -11 10 C-10.34 9.67 -9.68 9.34 -9 9 C-9 8.34 -9 7.68 -9 7 C-9.99 7 -10.98 7 -12 7 C-11.6875 4.625 -11.6875 4.625 -11 2 C-7.31905504 -0.45396331 -4.27624235 -0.69693286 0 0 Z " fill="#303030" transform="translate(12,0)"/>
<path d="M0 0 C0.91007813 0.10183594 1.82015625 0.20367187 2.7578125 0.30859375 C3.45648438 0.39238281 4.15515625 0.47617188 4.875 0.5625 C4.875 1.2225 4.875 1.8825 4.875 2.5625 C2.62987738 3.68506131 1.36043351 3.69663762 -1.125 3.6875 C-2.176875 3.69136719 -2.176875 3.69136719 -3.25 3.6953125 C-5.125 3.5625 -5.125 3.5625 -7.125 2.5625 C-7.125 1.9025 -7.125 1.2425 -7.125 0.5625 C-4.50184968 -0.74907516 -2.89466564 -0.33399988 0 0 Z " fill="#262626" transform="translate(9.125,12.4375)"/>
<path d="M0 0 C0.99 0.33 1.98 0.66 3 1 C2.67 1.99 2.34 2.98 2 4 C1.34 4 0.68 4 0 4 C0 4.66 0 5.32 0 6 C0.66 6.33 1.32 6.66 2 7 C1.01 7.33 0.02 7.66 -1 8 C-1.04241723 5.66705225 -1.04092937 3.33297433 -1 1 C-0.67 0.67 -0.34 0.34 0 0 Z " fill="#D2D2D2" transform="translate(1,6)"/>
</svg>
