<?xml version="1.0" encoding="UTF-8"?>
<svg version="1.1" xmlns="http://www.w3.org/2000/svg" width="500" height="500">
<path d="M0 0 C165 0 330 0 500 0 C500 165 500 330 500 500 C335 500 170 500 0 500 C0 335 0 170 0 0 Z " fill="#FFFEFE" transform="translate(0,0)"/>
<path d="M0 0 C1.10997419 3.32611477 0.87262095 5.36273986 -0.109375 8.703125 C-0.36976563 9.60160156 -0.63015625 10.50007813 -0.8984375 11.42578125 C-1.17945313 12.35777344 -1.46046875 13.28976563 -1.75 14.25 C-2.01554688 15.16652344 -2.28109375 16.08304688 -2.5546875 17.02734375 C-3.78926826 21.22851419 -5.0980728 25.34693071 -6.703125 29.421875 C-8.22716931 32.99245192 -8.22716931 32.99245192 -8 37 C-7.37955811 35.46291382 -7.37955811 35.46291382 -6.74658203 33.89477539 C-5.21404923 30.1032348 -3.67261102 26.31536941 -2.12841797 22.52856445 C-1.46060554 20.88730573 -0.79523115 19.24505283 -0.13232422 17.60180664 C0.81948911 15.24361443 1.7799371 12.88910554 2.7421875 10.53515625 C3.03809784 9.79660904 3.33400818 9.05806183 3.6388855 8.2971344 C5.77225659 3.11387171 5.77225659 3.11387171 8 2 C6.37422039 10.43723559 3.63145497 18.44563207 0.875 26.5625 C0.40192249 27.96665502 -0.07073713 29.3709509 -0.54296875 30.77539062 C-1.69050006 34.18523097 -2.84367152 37.59313137 -4 41 C-0.65335383 39.32667692 0.09043722 35.56293276 1.4765625 32.24609375 C1.80667328 31.47064713 2.13678406 30.6952005 2.47689819 29.89625549 C3.53250842 27.41259815 4.57883137 24.92514708 5.625 22.4375 C6.33793459 20.75560191 7.05146861 19.07395778 7.765625 17.39257812 C9.51739263 13.26463629 11.2608394 9.13326826 13 5 C13.66 5 14.32 5 15 5 C12.64249343 13.11132165 10.00011199 21.11788805 7.3125 29.125 C6.89677734 30.36765625 6.48105469 31.6103125 6.05273438 32.890625 C5.03653337 35.92754754 4.01892583 38.96399082 3 42 C3.66 42 4.32 42 5 42 C5.38027344 40.783125 5.76054687 39.56625 6.15234375 38.3125 C8.2433598 32.04559108 10.89911723 26.04073413 13.5625 20 C14.3040332 18.28490234 14.3040332 18.28490234 15.06054688 16.53515625 C15.53685547 15.45105469 16.01316406 14.36695312 16.50390625 13.25 C16.93517822 12.26515625 17.3664502 11.2803125 17.81079102 10.265625 C19 8 19 8 21 7 C20.35584472 11.79052754 19.03908363 16.17363891 17.41796875 20.70703125 C17.0347924 21.79427742 17.0347924 21.79427742 16.64387512 22.90348816 C16.10409267 24.43138109 15.56186641 25.95841262 15.01733398 27.48461914 C14.19450817 29.79284041 13.38085298 32.10414007 12.56835938 34.41601562 C4.83562553 56.30303311 4.83562553 56.30303311 -1 61 C-1.83559448 61.28155945 -2.67118896 61.5631189 -3.53210449 61.85321045 C-6.11155788 62.77626758 -6.11155788 62.77626758 -7.2130127 64.96856689 C-7.62674133 66.17763702 -7.62674133 66.17763702 -8.04882812 67.41113281 C-8.37266479 68.32679016 -8.69650146 69.24244751 -9.03015137 70.18585205 C-9.36051392 71.18155212 -9.69087646 72.1772522 -10.03125 73.203125 C-10.38964966 74.23250183 -10.74804932 75.26187866 -11.11730957 76.32244873 C-12.26291813 79.62572611 -13.38182362 82.93734833 -14.5 86.25 C-15.25213761 88.43550531 -16.00602522 90.62040919 -16.76171875 92.8046875 C-18.20822611 96.99242149 -19.64544669 101.18313646 -21.07421875 105.37695312 C-23.31519398 111.94264642 -25.63520883 118.47794083 -28 125 C-27.39639648 125.08169434 -26.79279297 125.16338867 -26.17089844 125.24755859 C-15.46229891 126.80110036 -5.55555193 132.14803497 4 137 C4.15650024 135.98873047 4.15650024 135.98873047 4.31616211 134.95703125 C5.14810253 131.35957947 6.50530358 128.07445104 7.94140625 124.6875 C8.53083054 123.26832533 9.12001603 121.84905145 9.70898438 120.4296875 C10.63621917 118.20983183 11.56620548 115.99121022 12.50073242 113.77441406 C13.40533582 111.62356879 14.29897451 109.46841836 15.19140625 107.3125 C15.47262833 106.65403076 15.7538504 105.99556152 16.04359436 105.31713867 C17.50741355 101.76270224 18.51887117 98.85085868 18 95 C17.34 94.01 16.68 93.02 16 92 C15.65694445 85.39870305 18.09708549 79.2105159 20.5 73.1875 C20.85457275 72.28241699 21.20914551 71.37733398 21.57446289 70.44482422 C38.36586546 28.11213847 38.36586546 28.11213847 50 20 C52.9375 19.0625 52.9375 19.0625 55 19 C54.50605329 26.10172562 52.83852917 31.94285148 50.2734375 38.55859375 C49.89359711 39.56442505 49.51375671 40.57025635 49.12240601 41.60656738 C48.30621098 43.76526157 47.48544518 45.92223213 46.66052246 48.0776062 C44.47353247 53.79361222 42.32107827 59.52263116 40.1640625 65.25 C39.72723145 66.40717026 39.29040039 67.56434052 38.84033203 68.75657654 C34.68864601 79.77396652 30.69111811 90.84330803 26.75 101.9375 C26.45470398 102.76708221 26.15940796 103.59666443 25.85516357 104.4513855 C24.45617739 108.38270072 23.06352166 112.31605755 21.68164062 116.25341797 C20.48143444 119.66510187 19.24370532 123.06115144 17.99023438 126.45361328 C17.66049622 127.35962784 17.33075806 128.2656424 16.99102783 129.19911194 C16.35628521 130.94298598 15.71218373 132.68349137 15.05731201 134.41990662 C12.88966886 140.1425217 12.88966886 140.1425217 14 146 C14.99 146.66 15.98 147.32 17 148 C17.78310547 147.03513672 17.78310547 147.03513672 18.58203125 146.05078125 C22.39534811 141.36928367 26.22973716 136.7172235 30.16137695 132.13500977 C34.72060128 126.81472308 38.97343513 121.39420202 43.04296875 115.68359375 C48.55412654 108.12637738 54.70950294 101.11180938 61.01171875 94.2109375 C62.5960382 92.44919917 64.09390998 90.66911213 65.5625 88.8125 C68.73734341 85.14921914 72.31248141 82.13269928 76 79 C78.11467185 77.13061522 80.22592102 75.25744866 82.3359375 73.3828125 C85.84829631 70.4640918 89.09063978 70.61504705 93.515625 70.640625 C96 71 96 71 99.0625 73.375 C102.1202762 77.51779356 102.21464217 79.56682596 101.58007812 84.56152344 C100.58739194 88.73448203 98.3073203 91.74568389 95.75 95.125 C95.29109375 95.76953125 94.8321875 96.4140625 94.359375 97.078125 C82.84574542 112.84939885 68.80212942 126.40210186 54.9375 140.0625 C51.25327904 143.69337707 47.57587742 147.33097042 43.90234375 150.97265625 C43.06694565 151.79145767 42.23154755 152.61025909 41.37083435 153.45387268 C35.48223394 159.1908387 35.48223394 159.1908387 31 166 C31.10466351 168.12935333 31.10466351 168.12935333 32.25390625 169.953125 C32.61274902 170.64946045 32.9715918 171.3457959 33.34130859 172.06323242 C33.74430176 172.78486572 34.14729492 173.50649902 34.5625 174.25 C35.34177061 175.7698207 36.11655926 177.29194831 36.88671875 178.81640625 C37.25974121 179.54230957 37.63276367 180.26821289 38.01708984 181.01611328 C47.72126539 200.60283223 45.40946011 224.45451338 38.8671875 244.46484375 C30.39533816 268.05698047 13.36810502 285.98800984 -9 297 C-31.21420898 306.89588892 -56.96185578 308.0606675 -79.8125 299.6875 C-89.50646245 295.67331283 -97.97035924 290.74662814 -106 284 C-107.09248047 283.12601562 -107.09248047 283.12601562 -108.20703125 282.234375 C-118.99840133 273.23841676 -126.5784402 261.87171647 -132 249 C-132 248.34 -132 247.68 -132 247 C-132.8878418 247.15146484 -133.77568359 247.30292969 -134.69042969 247.45898438 C-137.99240388 248.02069158 -141.29484921 248.57944992 -144.59765625 249.13623047 C-146.02558999 249.37756682 -147.45332731 249.62006848 -148.88085938 249.86376953 C-150.93568902 250.2143498 -152.99119431 250.56069948 -155.046875 250.90625 C-156.90070801 251.22045898 -156.90070801 251.22045898 -158.79199219 251.54101562 C-162 252 -162 252 -166 252 C-164.4713021 248.56042971 -162.36189832 245.91300793 -160 243 C-160 242.67 -160 242.34 -160 242 C-161.19882813 241.85304688 -161.19882813 241.85304688 -162.421875 241.703125 C-173.9785938 240.12967502 -185.70693596 237.49440649 -195 230 C-197.79667742 226.08843091 -198.79521207 223.15556954 -198.58203125 218.39453125 C-197.0731618 212.18690057 -192.03239244 208.4303994 -187.01953125 204.90234375 C-172.69863726 196.18892759 -152.08097707 187.17562852 -135 188 C-134.01 184.04 -134.01 184.04 -133 180 C-138.94 180.99 -138.94 180.99 -145 182 C-145.66 184.31 -146.32 186.62 -147 189 C-147.66 189 -148.32 189 -149 189 C-149.66 187.02 -150.32 185.04 -151 183 C-151.85754883 183.09611572 -152.71509766 183.19223145 -153.59863281 183.29125977 C-156.78863449 183.6453923 -159.97924812 183.99316364 -163.17041016 184.33666992 C-164.54991989 184.4864758 -165.92915918 184.63879463 -167.30810547 184.79370117 C-169.29321067 185.01625623 -171.2794135 185.22895079 -173.265625 185.44140625 C-174.45961914 185.57232666 -175.65361328 185.70324707 -176.88378906 185.83813477 C-179.60123179 185.9792868 -181.45180599 185.86318693 -184 185 C-183.4946875 184.57332031 -182.989375 184.14664063 -182.46875 183.70703125 C-179.51570538 180.86531173 -177.31736936 178.45642106 -176.4296875 174.3828125 C-176.3784493 171.62326957 -176.51180417 168.94605808 -176.79345703 166.20117188 C-177.03947521 163.57930441 -177.16602626 160.95760681 -177.30859375 158.328125 C-177.63445856 147.19742834 -177.63445856 147.19742834 -182.6484375 137.77734375 C-185.36553554 135.85302367 -187.97321352 134.36693583 -191 133 C-191 132.67 -191 132.34 -191 132 C-187.12577792 131.49384729 -183.25051183 130.99617279 -179.375 130.5 C-178.28058594 130.35691406 -177.18617188 130.21382812 -176.05859375 130.06640625 C-174.99511719 129.93105469 -173.93164062 129.79570312 -172.8359375 129.65625 C-171.86188965 129.53056641 -170.8878418 129.40488281 -169.88427734 129.27539062 C-166.87085665 128.9876694 -164.02292955 128.7909336 -161 129 C-158.8828125 131.40625 -158.8828125 131.40625 -157.125 134.5 C-156.52945313 135.5209375 -155.93390625 136.541875 -155.3203125 137.59375 C-154.88460937 138.3878125 -154.44890625 139.181875 -154 140 C-153.80664062 139.39671875 -153.61328125 138.7934375 -153.4140625 138.171875 C-153.02347656 136.97304688 -153.02347656 136.97304688 -152.625 135.75 C-152.24214844 134.56664062 -152.24214844 134.56664062 -151.8515625 133.359375 C-150.27438495 128.98958032 -150.27438495 128.98958032 -149 127 C-146.97216797 126.27050781 -146.97216797 126.27050781 -144.4921875 125.953125 C-143.58726562 125.83066406 -142.68234375 125.70820313 -141.75 125.58203125 C-140.326875 125.41767578 -140.326875 125.41767578 -138.875 125.25 C-137.94945312 125.12496094 -137.02390625 124.99992187 -136.0703125 124.87109375 C-130.67206157 124.17725076 -125.44012939 123.87199696 -120 124 C-121.50718203 126.71292765 -122.85414411 128.86272387 -125.125 131 C-127.30904742 133.32965058 -127.65253717 134.8728345 -128 138 C-127.30777344 137.67644531 -126.61554688 137.35289062 -125.90234375 137.01953125 C-119.6636589 134.82801477 -112.39696026 135.02496532 -106.3125 137.5 C-105.1678125 138.2425 -105.1678125 138.2425 -104 139 C-103.34 139 -102.68 139 -102 139 C-102.33 138.34 -102.66 137.68 -103 137 C-103.68128376 130.18716238 -103.68128376 130.18716238 -101.953125 127.17578125 C-99.61960998 124.34124683 -97.75467707 122.24565479 -94.046875 121.7265625 C-87.61115402 121.4419898 -87.61115402 121.4419898 -84.125 124.625 C-81.32747957 127.25963696 -81.32747957 127.25963696 -78.5390625 126.95703125 C-75.65190979 126.41922829 -72.84604187 125.72553038 -70 125 C-62.7063491 123.21213218 -55.87118542 122.74489264 -48.375 122.875 C-47.37082031 122.88402344 -46.36664063 122.89304687 -45.33203125 122.90234375 C-42.88774442 122.92562267 -40.44405466 122.96014338 -38 123 C-37.8287561 122.47144913 -37.65751221 121.94289825 -37.4810791 121.39833069 C-35.50904313 115.38875766 -33.34082121 109.47013509 -31.09375 103.55859375 C-30.54479065 102.10792259 -30.54479065 102.10792259 -29.98474121 100.62794495 C-28.82482126 97.56383131 -27.66247397 94.50064547 -26.5 91.4375 C-25.71988648 89.37831794 -24.93993711 87.31907368 -24.16015625 85.25976562 C-23.05897311 82.35178329 -21.95756412 79.44388909 -20.8548584 76.53648376 C-20.20397875 74.82030742 -19.55598881 73.10303136 -18.91137695 71.38449097 C-18.31418498 69.82202129 -17.69616476 68.26731848 -17.05541992 66.72219849 C-15.54233637 63.00735553 -14.70036675 60.81991567 -16 57 C-16.350625 56.4225 -16.70125 55.845 -17.0625 55.25 C-19.82540261 48.61903373 -17.41618508 42.67620383 -14.84912109 36.41967773 C-14.40391113 35.37368408 -13.95870117 34.32769043 -13.5 33.25 C-12.58574355 31.03784056 -11.67168401 28.82559974 -10.7578125 26.61328125 C-10.29665039 25.51064941 -9.83548828 24.40801758 -9.36035156 23.27197266 C-7.31309364 18.34782501 -5.34423858 13.39323577 -3.375 8.4375 C-2.71657343 6.79019361 -2.05776431 5.14304003 -1.3984375 3.49609375 C-0.93695313 2.34238281 -0.47546875 1.18867187 0 0 Z " fill="#FF9351" transform="translate(319,56)"/>
<path d="M0 0 C5.97318082 0.88845939 9.84950227 5.97786818 14 10 C14.78246094 10.74507812 15.56492187 11.49015625 16.37109375 12.2578125 C29.03994374 25.21209585 35.28000291 43.1968976 35.4375 61.125 C35.13745261 82.29526124 26.81324592 101.03620821 12.07421875 116.140625 C-3.00002283 130.7031319 -23.11030136 136.4205734 -43.59545898 136.29638672 C-60.03640586 135.92949076 -75.83257109 129.12387206 -88 118 C-88.89203125 117.19949219 -89.7840625 116.39898437 -90.703125 115.57421875 C-97.56030289 109.10111777 -102.68349866 102.3980069 -107 94 C-107 93.34 -107 92.68 -107 92 C-106.33613281 91.95101562 -105.67226562 91.90203125 -104.98828125 91.8515625 C-99.45377482 91.4263785 -99.45377482 91.4263785 -94.1875 89.8125 C-92 89 -92 89 -89.85742188 89.94140625 C-86.22475293 91.28720705 -82.90602029 91.21277063 -79.09375 91.125 C-77.95202332 91.11364014 -77.95202332 91.11364014 -76.78723145 91.10205078 C-73.55351309 91.06966237 -70.3203159 91.01394305 -67.08691406 90.95898438 C-57.13533448 90.80457032 -47.82994482 91.21591128 -38 93 C-35.27393392 93.34611125 -32.54808789 93.6061057 -29.8125 93.875 C-17.81180489 95.11885982 -5.91054117 97.09841 6 99 C5.5654248 98.47108154 5.13084961 97.94216309 4.68310547 97.3972168 C4.12510254 96.69250244 3.56709961 95.98778809 2.9921875 95.26171875 C2.4338623 94.56780029 1.87553711 93.87388184 1.30029297 93.15893555 C-0.56839482 90.05626824 -0.09893997 88.00477296 0.546875 84.56640625 C1.68509461 78.11976587 2.55466632 71.30978996 -1.1875 65.75 C-3.92457381 64.04693185 -5.80748543 63.27364411 -9 63 C-9.33 62.01 -9.66 61.02 -10 60 C-10.99580078 60.433125 -10.99580078 60.433125 -12.01171875 60.875 C-12.89472656 61.24625 -13.77773438 61.6175 -14.6875 62 C-15.55761719 62.37125 -16.42773438 62.7425 -17.32421875 63.125 C-20.09463081 64.03094496 -22.10797186 64.27051284 -25 64 C-26.36733028 63.04701223 -27.70264493 62.04625409 -29 61 C-30.32285844 60.62726088 -31.65609825 60.28777938 -33 60 C-32.95359375 59.33613281 -32.9071875 58.67226563 -32.859375 57.98828125 C-32.82328125 57.10527344 -32.7871875 56.22226562 -32.75 55.3125 C-32.70359375 54.44238281 -32.6571875 53.57226562 -32.609375 52.67578125 C-33.13444177 49.0790739 -34.47081656 47.57609915 -37 45 C-49.37673291 36.74236815 -65.1442644 33.80466473 -79.77734375 33.90234375 C-80.99436729 33.90446617 -80.99436729 33.90446617 -82.23597717 33.90663147 C-84.80319047 33.91218643 -87.37031348 33.92473033 -89.9375 33.9375 C-91.68814977 33.94252083 -93.43880093 33.94708271 -95.18945312 33.95117188 C-99.4596697 33.96214107 -103.72981959 33.97937418 -108 34 C-106.125 28.125 -106.125 28.125 -105 27 C-102.10137439 26.92361988 -99.22630514 26.90934176 -96.328125 26.9375 C-95.45355652 26.94128662 -94.57898804 26.94507324 -93.67791748 26.94897461 C-89.92259085 26.96536794 -86.16737134 26.99337068 -82.41210938 27.02050781 C-79.67578639 27.03862284 -76.93948137 27.05070401 -74.203125 27.0625 C-73.35711731 27.07079834 -72.51110962 27.07909668 -71.63946533 27.08764648 C-67.58354703 27.10445178 -63.98157737 26.84222027 -60 26 C-59.34 26.33 -58.68 26.66 -58 27 C-52.56964043 27.54303596 -49.42726944 26.51914261 -44.89453125 23.77734375 C-42.4516637 22.77501253 -41.4407191 23.05796807 -39 24 C-37.68055232 24.76656171 -36.38879017 25.58228457 -35.125 26.4375 C-28.70198915 30.52272381 -22.60698675 32.16038781 -15 31 C-10.6237822 29.14767173 -6.07261777 26.38907292 -4 22 C-3.18671735 18.03804508 -2.63080858 14.37607711 -3.6875 10.4375 C-4.20025739 6.43799233 -1.96322446 3.39561999 0 0 Z " fill="#FFFDFD" transform="translate(311,208)"/>
<path d="M0 0 C2.82424288 2.19022918 4.41508603 3.83017207 6 7 C6.2385918 14.06048208 3.91328236 18.62351974 -0.25 24.125 C-0.70890625 24.76953125 -1.1678125 25.4140625 -1.640625 26.078125 C-13.17686588 41.88037162 -27.25199579 55.48069041 -41.125 69.1875 C-43.93385334 71.96751302 -46.74004506 74.75019233 -49.54391479 77.53523254 C-51.27397877 79.2531197 -53.00670924 80.96832684 -54.74246216 82.6804657 C-55.5211264 83.45259903 -56.29979065 84.22473236 -57.10205078 85.02026367 C-58.12578293 86.03161629 -58.12578293 86.03161629 -59.17019653 87.06340027 C-61.06331687 88.95714343 -61.06331687 88.95714343 -62.49362183 91.24873352 C-62.99072662 91.82665146 -63.48783142 92.4045694 -64 93 C-65.32 93 -66.64 93 -68 93 C-68 92.01 -68 91.02 -68 90 C-68.66 90 -69.32 90 -70 90 C-70 89.01 -70 88.02 -70 87 C-70.99 86.67 -71.98 86.34 -73 86 C-74.01866229 84.34467377 -75.01810813 82.67739862 -76 81 C-76.99 80.34 -77.98 79.68 -79 79 C-77.59945495 74.73747158 -75.59743966 72.21506395 -72.5 69 C-66.88176174 62.97815267 -61.94388603 56.5776359 -57 50 C-50.26938281 41.08799164 -43.30011524 32.45276501 -36 24 C-35.27683594 23.15179688 -34.55367188 22.30359375 -33.80859375 21.4296875 C-29.53420281 16.49448074 -24.98947266 12.19963336 -20 8 C-17.88467674 6.13133988 -15.77408447 4.25745354 -13.6640625 2.3828125 C-9.66565001 -0.93981196 -4.97535819 -0.7197059 0 0 Z " fill="#FF924F" transform="translate(415,127)"/>
<path d="M0 0 C-0.49394632 7.10171994 -2.16145449 12.9428599 -4.7265625 19.55859375 C-5.10635757 20.56424377 -5.48615265 21.5698938 -5.87745667 22.60601807 C-6.69361783 24.76452469 -7.51433788 26.92131208 -8.33920288 29.07650757 C-10.5280162 34.79792728 -12.68136095 40.5327101 -14.83984375 46.265625 C-15.27688126 47.42362106 -15.71391876 48.58161713 -16.16419983 49.77470398 C-20.28367655 60.70603911 -24.26965858 71.6824665 -28.1875 82.6875 C-28.49481049 83.5498526 -28.80212097 84.4122052 -29.1187439 85.3006897 C-33.92588257 98.80841434 -38.58040391 112.35996861 -43 126 C-44.48285242 125.04737966 -45.96118201 124.08771595 -47.4375 123.125 C-48.26121094 122.59132813 -49.08492188 122.05765625 -49.93359375 121.5078125 C-52 120 -52 120 -53 118 C-52.34 118 -51.68 118 -51 118 C-50.8956665 117.32582031 -50.79133301 116.65164062 -50.68383789 115.95703125 C-49.85189747 112.35957947 -48.49469642 109.07445104 -47.05859375 105.6875 C-46.46916946 104.26832533 -45.87998397 102.84905145 -45.29101562 101.4296875 C-44.36378083 99.20983183 -43.43379452 96.99121022 -42.49926758 94.77441406 C-41.59466418 92.62356879 -40.70102549 90.46841836 -39.80859375 88.3125 C-39.52737167 87.65403076 -39.2461496 86.99556152 -38.95640564 86.31713867 C-37.49258645 82.76270224 -36.48112883 79.85085868 -37 76 C-37.66 75.01 -38.32 74.02 -39 73 C-39.34305555 66.39870305 -36.90291451 60.2105159 -34.5 54.1875 C-34.14542725 53.28241699 -33.79085449 52.37733398 -33.42553711 51.44482422 C-13.01977408 0 -13.01977408 0 0 0 Z " fill="#FF9350" transform="translate(374,75)"/>
<path d="M0 0 C0.17390259 1.6874231 0.17390259 1.6874231 0.35131836 3.40893555 C0.78316639 7.5931053 1.21814304 11.77694496 1.65405273 15.96069336 C1.84207788 17.76952441 2.02926095 19.5784432 2.21557617 21.38745117 C2.48393556 23.99161067 2.75534801 26.59543686 3.02734375 29.19921875 C3.10967758 30.00461594 3.19201141 30.81001312 3.27684021 31.63981628 C3.35684769 32.4002272 3.43685516 33.16063812 3.51928711 33.9440918 C3.58812607 34.60805466 3.65696503 35.27201752 3.72789001 35.95610046 C4.04275985 38.32118203 4.53207685 40.66038427 5 43 C-0.94 43.495 -0.94 43.495 -7 44 C-7.06058594 42.91460937 -7.12117188 41.82921875 -7.18359375 40.7109375 C-7.26806064 39.26561514 -7.35270551 37.82030318 -7.4375 36.375 C-7.47681641 35.66214844 -7.51613281 34.94929688 -7.55664062 34.21484375 C-7.59853516 33.51230469 -7.64042969 32.80976563 -7.68359375 32.0859375 C-7.73858032 31.1276001 -7.73858032 31.1276001 -7.79467773 30.14990234 C-8.05575873 27.41615765 -8.54853023 24.70881863 -9 22 C-10.98 28.93 -12.96 35.86 -15 43 C-19.5 38.5 -19.5 38.5 -21.140625 35.328125 C-21.48867187 34.66425781 -21.83671875 34.00039062 -22.1953125 33.31640625 C-22.54335937 32.63449219 -22.89140625 31.95257813 -23.25 31.25 C-23.61351562 30.55261719 -23.97703125 29.85523438 -24.3515625 29.13671875 C-25.24106197 27.42794346 -26.12145867 25.71443502 -27 24 C-26.69305541 27.10474234 -26.378486 30.20866586 -26.0625 33.3125 C-25.97548828 34.19357422 -25.88847656 35.07464844 -25.79882812 35.98242188 C-25.71181641 36.82998047 -25.62480469 37.67753906 -25.53515625 38.55078125 C-25.456604 39.33106689 -25.37805176 40.11135254 -25.29711914 40.9152832 C-25.03662003 43.18882001 -25.03662003 43.18882001 -24 46 C-26.52475462 47.26237731 -28.31200466 47.09856404 -31.125 47.0625 C-32.03507813 47.05347656 -32.94515625 47.04445312 -33.8828125 47.03515625 C-34.58148438 47.02355469 -35.28015625 47.01195312 -36 47 C-36.11593506 45.86981445 -36.23187012 44.73962891 -36.35131836 43.57519531 C-36.78264624 39.37795084 -37.21777749 35.18110787 -37.65405273 30.984375 C-37.84226411 29.16872698 -38.02944698 27.35297203 -38.21557617 25.53710938 C-38.48345265 22.92549233 -38.75503812 20.31428348 -39.02734375 17.703125 C-39.10967758 16.89256653 -39.19201141 16.08200806 -39.27684021 15.24688721 C-39.64471536 11.75016321 -40.09011341 8.39516888 -41 5 C-37.22983949 3.79354864 -33.93139279 3.4822684 -30 4 C-27.83580071 6.08262533 -26.56824531 8.5416868 -25.1875 11.1875 C-24.80658203 11.86103516 -24.42566406 12.53457031 -24.03320312 13.22851562 C-22.08368851 16.72808214 -20.38261395 20.23255987 -19 24 C-18.34 24 -17.68 24 -17 24 C-16.88785156 23.01902344 -16.77570313 22.03804687 -16.66015625 21.02734375 C-16.04422965 16.71585752 -14.78672896 12.69333264 -13.4375 8.5625 C-13.20353516 7.83095703 -12.96957031 7.09941406 -12.72851562 6.34570312 C-12.15732778 4.56219821 -11.57936877 2.78086417 -11 1 C-3.375 0 -3.375 0 0 0 Z " fill="#FFFBF9" transform="translate(185,187)"/>
<path d="M0 0 C4.23304698 3.17478524 6.28525925 6.37648303 7.0390625 11.63671875 C7.06742188 12.93222656 7.09578125 14.22773438 7.125 15.5625 C7.13009864 21.07605811 7.13009864 21.07605811 9.5 25.875 C4 29.875 4 29.875 -0.5 29.875 C-1.985 26.41 -1.985 26.41 -3.5 22.875 C-3.86351562 23.4525 -4.22703125 24.03 -4.6015625 24.625 C-8.7039801 30.68395522 -8.7039801 30.68395522 -12.625 31.625 C-16.24851597 30.67973496 -17.47990444 30.0605353 -19.5 26.875 C-20.25555249 23.68959069 -20.30189199 21.05510589 -19.5 17.875 C-17.62589791 15.01728533 -15.5845948 13.33347689 -12.5 11.875 C-9.42380775 11.42233247 -6.58013178 11.49784101 -3.5 11.875 C-4.58743288 9.75577873 -4.58743288 9.75577873 -6.5 7.875 C-11.13232775 7.17008056 -13.72602907 8.21102052 -17.5 10.875 C-19.5625 8.0625 -19.5625 8.0625 -21.5 4.875 C-20.5 1.875 -20.5 1.875 -18.30859375 0.2109375 C-12.58550987 -2.51130824 -5.92280633 -1.90375918 0 0 Z " fill="#FFFCFA" transform="translate(211.5,199.125)"/>
<path d="M0 0 C3.86123885 1.79195615 6.61166521 3.40500707 8.68359375 7.234375 C9.13761171 10.24989543 9.19528978 13.25105622 9.24609375 16.296875 C9.28058734 17.91296355 9.32322559 19.528904 9.375 21.14453125 C9.38732666 21.85746338 9.39965332 22.57039551 9.41235352 23.30493164 C9.58711788 25.55925226 9.58711788 25.55925226 11.68359375 28.234375 C7.82602868 30.38743457 5.1322959 31.62690754 0.68359375 31.234375 C0.02359375 28.594375 -0.63640625 25.954375 -1.31640625 23.234375 C-2.33734375 24.9359375 -2.33734375 24.9359375 -3.37890625 26.671875 C-5.51513275 29.64322688 -6.19015323 30.18928464 -9.81640625 31.484375 C-13.31640625 31.234375 -13.31640625 31.234375 -16.25390625 29.171875 C-18.31640625 26.234375 -18.31640625 26.234375 -19.00390625 23.359375 C-18.03215637 18.94233011 -15.56870216 16.29288126 -12.31640625 13.234375 C-9.91094987 12.03164681 -8.36643672 12.13366028 -5.69140625 12.171875 C-4.46550781 12.18541016 -4.46550781 12.18541016 -3.21484375 12.19921875 C-2.27511719 12.21662109 -2.27511719 12.21662109 -1.31640625 12.234375 C-2.49203125 13.03875 -2.49203125 13.03875 -3.69140625 13.859375 C-6.65066924 16.53680342 -7.36248881 18.41870525 -8.31640625 22.234375 C-6.00640625 21.574375 -3.69640625 20.914375 -1.31640625 20.234375 C-1.23549654 18.61018755 -1.1772563 16.98485755 -1.12890625 15.359375 C-1.09410156 14.45445312 -1.05929688 13.54953125 -1.0234375 12.6171875 C-1.16845703 11.43769531 -1.16845703 11.43769531 -1.31640625 10.234375 C-4.8044472 7.90901437 -6.21781379 7.89979602 -10.31640625 8.234375 C-12.61871391 9.13268516 -12.61871391 9.13268516 -14.31640625 10.234375 C-16.29640625 6.769375 -16.29640625 6.769375 -18.31640625 3.234375 C-12.71834981 -1.47977779 -7.02263736 -2.32114152 0 0 Z " fill="#FFFBF9" transform="translate(253.31640625,198.765625)"/>
<path d="M0 0 C-0.99 2.97 -1.98 5.94 -3 9 C-5.21354167 7.99088542 -7.42708333 6.98177083 -9.640625 5.97265625 C-11.75823698 5.09966721 -13.76669362 4.48661492 -16 4 C-13.85674102 6.3040034 -11.70454332 7.90186077 -9 9.5 C-6.31917307 11.084125 -3.94001312 12.53254582 -2 15 C-2 18.11784978 -2.03337262 20.12905881 -3 23 C-6.4120003 26.4120003 -8.8197523 27.91860361 -13.625 28.25 C-18.343861 28.17235878 -21.78375181 27.14510873 -26 25 C-27.125 22.5625 -27.125 22.5625 -27 20 C-26.0625 17.6875 -26.0625 17.6875 -25 16 C-22.67358362 16.51698142 -20.68370057 17.14233474 -18.5 18.125 C-15.7121571 19.10074502 -14.741985 18.82491922 -12 18 C-12.60328125 17.68546875 -13.2065625 17.3709375 -13.828125 17.046875 C-22.81017554 12.23713181 -22.81017554 12.23713181 -25 9 C-25.60917138 4.81194674 -25.46182172 2.75870712 -23.25 -0.875 C-16.56755262 -7.1862003 -6.98608122 -4.06462908 0 0 Z " fill="#FFFBF9" transform="translate(305,206)"/>
<path d="M0 0 C1.27875 -0.061875 2.5575 -0.12375 3.875 -0.1875 C4.95394531 -0.23970703 4.95394531 -0.23970703 6.0546875 -0.29296875 C6.69664062 -0.19628906 7.33859375 -0.09960938 8 0 C10.52380997 3.78571496 10.06111254 5.45446814 9.5 9.7890625 C9 12 9 12 7.3125 14.75 C6.6628125 15.86375 6.6628125 15.86375 6 17 C7.12867452 20.66666696 8.93099869 23.56608267 11.125 26.6875 C14 30.77990431 14 30.77990431 14 33 C9.05 33.495 9.05 33.495 4 34 C2.02 30.04 0.04 26.08 -2 22 C-1.67 26.29 -1.34 30.58 -1 35 C-5.455 35.495 -5.455 35.495 -10 36 C-10.29003906 33.93492187 -10.29003906 33.93492187 -10.5859375 31.828125 C-11.94564063 22.19827897 -13.31422138 12.57918908 -15 3 C-13 2 -13 2 -6 2 C-5.34 6.95 -4.68 11.9 -4 17 C0.53929467 12.46258739 0.53929467 12.46258739 1.125 6.5 C1.16577272 3.02704094 1.16577272 3.02704094 0 0 Z " fill="#FFFAF6" transform="translate(174,265)"/>
<path d="M0 0 C0.33 4.95 0.66 9.9 1 15 C1.99 13.35 2.98 11.7 4 10 C7 9.5 7 9.5 10 10 C12.26671165 11.65967016 12.92174946 12.57286956 13.43237305 15.36010742 C13.45855713 16.26607666 13.48474121 17.1720459 13.51171875 18.10546875 C13.56489258 19.57983398 13.56489258 19.57983398 13.61914062 21.08398438 C13.64169922 22.10814453 13.66425781 23.13230469 13.6875 24.1875 C13.73874023 25.74114258 13.73874023 25.74114258 13.79101562 27.32617188 C13.87352642 29.8840066 13.94266572 32.44149723 14 35 C11.03 35 8.06 35 5 35 C5 29.06 5 23.12 5 17 C3.68 17.33 2.36 17.66 1 18 C0.67 23.61 0.34 29.22 0 35 C-2.97 35 -5.94 35 -9 35 C-8.67 24.44 -8.34 13.88 -8 3 C-2 0 -2 0 0 0 Z " fill="#FFF7F2" transform="translate(247,260)"/>
<path d="M0 0 C2.9375 1.0625 2.9375 1.0625 5 3 C6.0625 6.4375 6.0625 6.4375 6 10 C4.6875 12.4375 4.6875 12.4375 2 14 C-1.36073119 14.32082097 -4.63551639 14.23114773 -8 14 C-7.01 15.485 -7.01 15.485 -6 17 C-4.0861126 17.28818935 -4.0861126 17.28818935 -2 17.0625 C0.125 16.91015625 0.125 16.91015625 2 17 C2.66 17.66 3.32 18.32 4 19 C3.875 21 3.875 21 3 23 C-0.37330502 25.59485001 -3.89509876 25.36007906 -8 25 C-11.83057079 23.29752409 -13.45942876 21.8514281 -15 18 C-15.62941829 13.61394833 -16.04352395 9.00170394 -13.94921875 4.984375 C-9.84611195 -0.00229168 -6.22629295 -0.63217151 0 0 Z " fill="#FFFBF9" transform="translate(279,272)"/>
<path d="M0 0 C0.33 1.32 0.66 2.64 1 4 C1.66 3.01 2.32 2.02 3 1 C6.36875585 0.63249936 8.87672462 0.42024496 11.9375 2 C15.46829671 8.64620557 12.10139115 18.99829915 11 26 C8.03 25.67 5.06 25.34 2 25 C2.2165625 23.93072266 2.2165625 23.93072266 2.4375 22.83984375 C3.4797232 17.46226157 4.2433952 12.47639208 4 7 C1.24358584 7.49756092 1.24358584 7.49756092 -1 9 C-1.39943176 11.52195967 -1.75079848 14.02963656 -2.0625 16.5625 C-2.15337891 17.27341797 -2.24425781 17.98433594 -2.33789062 18.71679688 C-2.56239503 20.47738403 -2.78168397 22.23863478 -3 24 C-5.97 23.67 -8.94 23.34 -12 23 C-11.67515625 21.7315625 -11.67515625 21.7315625 -11.34375 20.4375 C-9.79673817 14.13485921 -8.61821512 8.49034301 -9 2 C-2.25 0 -2.25 0 0 0 Z " fill="#FFF9F5" transform="translate(296,275)"/>
<path d="M0 0 C0.66 0.495 1.32 0.99 2 1.5 C1.01 3.15 0.02 4.8 -1 6.5 C-2.093125 6.273125 -3.18625 6.04625 -4.3125 5.8125 C-7.8386815 5.15875821 -7.8386815 5.15875821 -9.9375 6.625 C-11.33812547 9.096692 -11.35877543 10.70155166 -11 13.5 C-9.19046912 15.75550736 -9.19046912 15.75550736 -6.625 15.625 C-5.75875 15.58375 -4.8925 15.5425 -4 15.5 C-2.68 15.5 -1.36 15.5 0 15.5 C0.66 16.82 1.32 18.14 2 19.5 C-1.01023244 22.60733672 -3.2416936 23.82938338 -7.5 24 C-10.7502765 23.84316469 -12.02750222 23.48420085 -14.9375 21.8125 C-18.60963959 17.69525258 -19.46712781 14.04361517 -19.3203125 8.49609375 C-18.66937953 4.43967003 -16.41449937 1.61139236 -13.25 -0.875 C-8.39258883 -2.22428088 -4.44711581 -2.2235579 0 0 Z " fill="#FFFAF8" transform="translate(235,271.5)"/>
<path d="M0 0 C0.33 10.23 0.66 20.46 1 31 C-2.63 31 -6.26 31 -10 31 C-10 21.66666667 -10 12.33333333 -10 3 C-8.70990357 2.49596232 -7.41786211 1.99690074 -6.125 1.5 C-5.04605469 1.08234375 -5.04605469 1.08234375 -3.9453125 0.65625 C-2 0 -2 0 0 0 Z " fill="#FFFCFB" transform="translate(232,198)"/>
<path d="M0 0 C0 1.98 0 3.96 0 6 C1.98 6 3.96 6 6 6 C6 8.31 6 10.62 6 13 C4.35 13 2.7 13 1 13 C1.33 16.63 1.66 20.26 2 24 C3.65 24 5.3 24 7 24 C7.66 25.65 8.32 27.3 9 29 C5.5970516 31.09412209 2.96378615 31.57805215 -1 31 C-4.81586514 27.25376744 -5.53723745 24.45337305 -5.75 19.1875 C-5.80671875 18.02605469 -5.8634375 16.86460937 -5.921875 15.66796875 C-5.94765625 14.78753906 -5.9734375 13.90710938 -6 13 C-6.66 13 -7.32 13 -8 13 C-8.4375 9.875 -8.4375 9.875 -8 6 C-2.92407809 0 -2.92407809 0 0 0 Z " fill="#FFFBF9" transform="translate(206,265)"/>
<path d="M0 0 C0.495 6.93 0.495 6.93 1 14 C0.34 13.34 -0.32 12.68 -1 12 C-1.36351562 12.5775 -1.72703125 13.155 -2.1015625 13.75 C-6.2039801 19.80895522 -6.2039801 19.80895522 -10.125 20.75 C-13.74851597 19.80473496 -14.97990444 19.1855353 -17 16 C-17.75539747 12.81524426 -17.80308819 10.17934914 -17 7 C-14.60927576 3.42133826 -11.74720552 1.42067549 -7.56640625 0.4140625 C-5.02953874 0.11369739 -2.55137804 0 0 0 Z " fill="#FFF9F5" transform="translate(209,210)"/>
<path d="M0 0 C2.48904468 2.48904468 2.35528113 3.55849404 2.6328125 7.0078125 C2.71660156 7.99394531 2.80039063 8.98007812 2.88671875 9.99609375 C2.96535156 11.02863281 3.04398438 12.06117188 3.125 13.125 C3.21136719 14.16527344 3.29773438 15.20554687 3.38671875 16.27734375 C3.59922379 18.85101589 3.80329156 21.42508017 4 24 C1.29120665 25.35439668 -1.00933268 25.06501451 -4 25 C-4.12117187 23.73542969 -4.24234375 22.47085937 -4.3671875 21.16796875 C-4.53602147 19.50776802 -4.70531633 17.84761411 -4.875 16.1875 C-4.95363281 15.35412109 -5.03226563 14.52074219 -5.11328125 13.66210938 C-5.19707031 12.85966797 -5.28085938 12.05722656 -5.3671875 11.23046875 C-5.44050293 10.49207764 -5.51381836 9.75368652 -5.58935547 8.99291992 C-5.9331578 6.69361347 -5.9331578 6.69361347 -8 4 C-5.36 2.68 -2.72 1.36 0 0 Z " fill="#FFF9F5" transform="translate(194,272)"/>
<path d="M0 0 C0.35098791 3.77312005 0.30640454 5.53511035 -1.8125 8.75 C-4.37535757 11.38608207 -5.93486147 12.95045867 -9.6875 13.125 C-10.8321875 13.063125 -10.8321875 13.063125 -12 13 C-12.45796457 9.87057543 -12.50559016 7.76774802 -10.734375 5.078125 C-5.10738973 -1.53221692 -5.10738973 -1.53221692 0 0 Z " fill="#FFFBF8" transform="translate(410,137)"/>
<path d="M0 0 C1.65 0 3.3 0 5 0 C4.67 0.66 4.34 1.32 4 2 C4.020625 2.969375 4.04125 3.93875 4.0625 4.9375 C4.16016567 10.05952195 3.01233224 15.00160956 2 20 C-1.0109362 17.9927092 -1.63016497 17.16115776 -3 14 C-5.64 14 -8.28 14 -11 14 C-11.66 12.68 -12.32 11.36 -13 10 C-12.31292969 9.96261719 -11.62585938 9.92523438 -10.91796875 9.88671875 C-10.01691406 9.82097656 -9.11585938 9.75523437 -8.1875 9.6875 C-7.29417969 9.62949219 -6.40085937 9.57148438 -5.48046875 9.51171875 C-2.64954407 8.92770122 -1.67161339 8.33146078 0 6 C0.25048636 2.87450983 0.25048636 2.87450983 0 0 Z " fill="#FF9859" transform="translate(284,276)"/>
<path d="M0 0 C1.8125 1.125 1.8125 1.125 3 3 C3.39769128 6.18153026 3.55198782 8.12844028 1.8125 10.875 C-0.65507108 12.40659584 -2.14519831 12.42822025 -5 12 C-6.8125 10.875 -6.8125 10.875 -8 9 C-8.39769128 5.81846974 -8.55198782 3.87155972 -6.8125 1.125 C-4.34492892 -0.40659584 -2.85480169 -0.42822025 0 0 Z " fill="#FFF8F4" transform="translate(230,183)"/>
<path d="M0 0 C2.31 0 4.62 0 7 0 C7.55353075 14.78132118 7.55353075 14.78132118 4 21 C3.67 21 3.34 21 3 21 C3 19.02 3 17.04 3 15 C2.01 15 1.02 15 0 15 C0 10.05 0 5.1 0 0 Z " fill="#FFF6F1" transform="translate(268,206)"/>
<path d="M0 0 C2.375 0.75 2.375 0.75 3.375 1.75 C3.39453125 3.74609375 3.39453125 3.74609375 3.1875 6.1875 C3.13207031 6.99058594 3.07664062 7.79367188 3.01953125 8.62109375 C2.375 10.75 2.375 10.75 0.32421875 12.03515625 C-0.31902344 12.27105469 -0.96226562 12.50695312 -1.625 12.75 C-1.295 11.43 -0.965 10.11 -0.625 8.75 C-1.264375 8.5025 -1.90375 8.255 -2.5625 8 C-4.625 6.75 -4.625 6.75 -5.5625 4.8125 C-5.625 2.75 -5.625 2.75 -4.5 0.9375 C-2.625 -0.25 -2.625 -0.25 0 0 Z " fill="#FFF8F4" transform="translate(274.625,187.25)"/>
<path d="M0 0 C4.55555556 0.55555556 4.55555556 0.55555556 6 2 C6.125 5 6.125 5 6 8 C5 9 5 9 2.0625 9.1875 C-1 9 -1 9 -3 7 C-2.67028521 3.70285207 -2.3773161 2.3773161 0 0 Z " fill="#FFF6F1" transform="translate(189,261)"/>
<path d="M0 0 C0.36075949 5.41139241 0.36075949 5.41139241 -1.1875 7.9375 C-3 9 -3 9 -5.6875 8.6875 C-6.450625 8.460625 -7.21375 8.23375 -8 8 C-8.36075949 3.55063291 -8.36075949 3.55063291 -6.8125 1.1875 C-4.44017475 -0.36678206 -2.77958655 -0.22537188 0 0 Z " fill="#FF9452" transform="translate(209,212)"/>
<path d="M0 0 C1.10960573 3.32881718 0.9412896 3.87364252 -0.21484375 7.01171875 C-0.48876953 7.76904297 -0.76269531 8.52636719 -1.04492188 9.30664062 C-1.33947266 10.09232422 -1.63402344 10.87800781 -1.9375 11.6875 C-2.22818359 12.48478516 -2.51886719 13.28207031 -2.81835938 14.10351562 C-3.53739302 16.07201757 -4.26763703 18.03641812 -5 20 C-5.99 19.67 -6.98 19.34 -8 19 C-6.00386732 12.2813095 -3.2708579 6.19265192 0 0 Z " fill="#FFA36A" transform="translate(339,63)"/>
<path d="M0 0 C0.66 0 1.32 0 2 0 C-1.63457165 12.57922669 -1.63457165 12.57922669 -4 18 C-4.99 18.33 -5.98 18.66 -7 19 C-6.33392561 14.59041892 -4.73375271 10.73427814 -2.9375 6.6875 C-2.65583984 6.04232422 -2.37417969 5.39714844 -2.08398438 4.73242188 C-1.3937257 3.15301642 -0.69746802 1.57623507 0 0 Z " fill="#FFA26A" transform="translate(332,61)"/>
<path d="M0 0 C1.56393356 3.97376829 0.36145292 6.81377903 -0.9375 10.75 C-1.31777344 11.92046875 -1.69804687 13.0909375 -2.08984375 14.296875 C-2.39019531 15.18890625 -2.69054687 16.0809375 -3 17 C-3.99 17 -4.98 17 -6 17 C-4.33846988 11.14340094 -2.52958084 5.5409866 0 0 Z " fill="#FFA36B" transform="translate(319,56)"/>
<path d="M0 0 C2.125 0.375 2.125 0.375 4 1 C3.6875 2.875 3.6875 2.875 3 5 C0 7 0 7 -3 7 C-2.25 2.25 -2.25 2.25 0 0 Z " fill="#FF995A" transform="translate(274,278)"/>
<path d="M0 0 C1.31225809 3.93677426 0.3393954 5.7794262 -0.9375 9.6875 C-1.31777344 10.86699219 -1.69804687 12.04648438 -2.08984375 13.26171875 C-2.39019531 14.16535156 -2.69054687 15.06898437 -3 16 C-3.99 16 -4.98 16 -6 16 C-5.37183502 12.05050296 -4.1354471 8.80107972 -2.4375 5.1875 C-1.98246094 4.21167969 -1.52742188 3.23585937 -1.05859375 2.23046875 C-0.70925781 1.49441406 -0.35992187 0.75835937 0 0 Z " fill="#FFA873" transform="translate(326,58)"/>
<path d="M0 0 C0.88336837 2.4667645 1.1312406 3.63859372 0.22265625 6.140625 C-0.16019531 6.83671875 -0.54304688 7.5328125 -0.9375 8.25 C-1.31777344 8.95640625 -1.69804687 9.6628125 -2.08984375 10.390625 C-2.39019531 10.92171875 -2.69054687 11.4528125 -3 12 C-3.33 12 -3.66 12 -4 12 C-3.125 4.375 -3.125 4.375 -2 1 C-1.34 0.67 -0.68 0.34 0 0 Z " fill="#FFEEE4" transform="translate(314,82)"/>
<path d="M0 0 C1.65 0 3.3 0 5 0 C4.67 0.66 4.34 1.32 4 2 C3.95977609 4.3329866 3.95679753 6.66706666 4 9 C1.49701566 6.06171403 0.53069061 3.82097239 0 0 Z " fill="#FFAB77" transform="translate(284,276)"/>
<path d="M0 0 C0.33 0.66 0.66 1.32 1 2 C1.66 2.33 2.32 2.66 3 3 C2.01 4.98 1.02 6.96 0 9 C-0.66 9 -1.32 9 -2 9 C-1.34 6.03 -0.68 3.06 0 0 Z " fill="#FFEADE" transform="translate(317,88)"/>
<path d="M0 0 C0.33 0 0.66 0 1 0 C0.67 2.64 0.34 5.28 0 8 C-0.99 8 -1.98 8 -3 8 C-1.125 1.125 -1.125 1.125 0 0 Z " fill="#FF9C5F" transform="translate(316,65)"/>
</svg>
